<svg xmlns="http://www.w3.org/2000/svg" xmlns:xlink="http://www.w3.org/1999/xlink" width="500" zoomAndPan="magnify" viewBox="0 0 375 374.999991" height="500" preserveAspectRatio="xMidYMid meet" version="1.0"><defs><g/><clipPath id="5fe936a888"><path d="M 104.132812 87.253906 L 147 87.253906 L 147 150.445312 L 104.132812 150.445312 Z M 104.132812 87.253906 " clip-rule="nonzero"/></clipPath><clipPath id="54a17f2277"><path d="M 117.597656 64.5625 L 243.554688 64.5625 L 243.554688 177.0625 L 117.597656 177.0625 Z M 117.597656 64.5625 " clip-rule="nonzero"/></clipPath><clipPath id="f37722a4bc"><path d="M 216.488281 89.21875 L 259.355469 89.21875 L 259.355469 152.410156 L 216.488281 152.410156 Z M 216.488281 89.21875 " clip-rule="nonzero"/></clipPath><clipPath id="2f8abd68b3"><path d="M 172.464844 133.726562 L 350.664062 133.726562 L 350.664062 311.929688 L 172.464844 311.929688 Z M 172.464844 133.726562 " clip-rule="nonzero"/></clipPath><clipPath id="4296a4ffec"><path d="M 261.566406 133.726562 C 212.355469 133.726562 172.464844 173.621094 172.464844 222.828125 C 172.464844 272.039062 212.355469 311.929688 261.566406 311.929688 C 310.773438 311.929688 350.664062 272.039062 350.664062 222.828125 C 350.664062 173.621094 310.773438 133.726562 261.566406 133.726562 Z M 261.566406 133.726562 " clip-rule="nonzero"/></clipPath><clipPath id="4a92b1988b"><path d="M 179.765625 141.027344 L 343.363281 141.027344 L 343.363281 304.628906 L 179.765625 304.628906 Z M 179.765625 141.027344 " clip-rule="nonzero"/></clipPath><clipPath id="1bfed05903"><path d="M 261.566406 141.027344 C 216.386719 141.027344 179.765625 177.652344 179.765625 222.828125 C 179.765625 268.007812 216.386719 304.628906 261.566406 304.628906 C 306.742188 304.628906 343.363281 268.007812 343.363281 222.828125 C 343.363281 177.652344 306.742188 141.027344 261.566406 141.027344 Z M 261.566406 141.027344 " clip-rule="nonzero"/></clipPath><clipPath id="0dc7b4a60b"><path d="M 179.765625 141.027344 L 343.265625 141.027344 L 343.265625 304.527344 L 179.765625 304.527344 Z M 179.765625 141.027344 " clip-rule="nonzero"/></clipPath><clipPath id="236cbf0ca7"><path d="M 261.5625 141.027344 C 216.386719 141.027344 179.765625 177.648438 179.765625 222.824219 C 179.765625 268 216.386719 304.621094 261.5625 304.621094 C 306.734375 304.621094 343.359375 268 343.359375 222.824219 C 343.359375 177.648438 306.734375 141.027344 261.5625 141.027344 Z M 261.5625 141.027344 " clip-rule="nonzero"/></clipPath><clipPath id="aa1a3f06ee"><path d="M 156.609375 213.089844 L 375 213.089844 L 375 325.589844 L 156.609375 325.589844 Z M 156.609375 213.089844 " clip-rule="nonzero"/></clipPath><clipPath id="915b80f4ea"><path d="M 297.4375 141.027344 L 359.988281 141.027344 L 359.988281 253.527344 L 297.4375 253.527344 Z M 297.4375 141.027344 " clip-rule="nonzero"/></clipPath><clipPath id="a0e02ad266"><path d="M 210 171.429688 L 253 171.429688 L 253 222 L 210 222 Z M 210 171.429688 " clip-rule="nonzero"/></clipPath><clipPath id="9401dee95d"><path d="M 192.363281 259 L 193 259 L 193 261 L 192.363281 261 Z M 192.363281 259 " clip-rule="nonzero"/></clipPath><clipPath id="a1e7819a6c"><path d="M 270 259 L 270.363281 259 L 270.363281 261 L 270 261 Z M 270 259 " clip-rule="nonzero"/></clipPath><clipPath id="7224a63caf"><path d="M 192.363281 223 L 270.363281 223 L 270.363281 274.179688 L 192.363281 274.179688 Z M 192.363281 223 " clip-rule="nonzero"/></clipPath><clipPath id="72fc439ca2"><path d="M 261 161.691406 L 304 161.691406 L 304 212 L 261 212 Z M 261 161.691406 " clip-rule="nonzero"/></clipPath><clipPath id="dd2896ea71"><path d="M 243.554688 249 L 244 249 L 244 251 L 243.554688 251 Z M 243.554688 249 " clip-rule="nonzero"/></clipPath><clipPath id="ab164bc1e4"><path d="M 321 250 L 321.554688 250 L 321.554688 251 L 321 251 Z M 321 250 " clip-rule="nonzero"/></clipPath><clipPath id="e07e08710f"><path d="M 243.554688 213 L 321.554688 213 L 321.554688 264.441406 L 243.554688 264.441406 Z M 243.554688 213 " clip-rule="nonzero"/></clipPath><clipPath id="d7ca1fdbb8"><path d="M 188.886719 250.589844 L 329.820312 250.589844 L 329.820312 276.253906 L 188.886719 276.253906 Z M 188.886719 250.589844 " clip-rule="nonzero"/></clipPath><clipPath id="f256e7f1c9"><path d="M 259 231 L 366 231 L 366 363 L 259 363 Z M 259 231 " clip-rule="nonzero"/></clipPath><clipPath id="452365082d"><path d="M 259.355469 255.632812 L 329.453125 231.675781 L 365.855469 338.1875 L 295.761719 362.144531 Z M 259.355469 255.632812 " clip-rule="nonzero"/></clipPath><clipPath id="12e5efac36"><path d="M 259.355469 255.632812 L 329.453125 231.675781 L 365.835938 338.128906 L 295.738281 362.085938 Z M 259.355469 255.632812 " clip-rule="nonzero"/></clipPath></defs><g clip-path="url(#5fe936a888)"><path fill="#ffffff" d="M 104.132812 87.253906 L 147 87.253906 L 147 150.382812 L 104.132812 150.382812 Z M 104.132812 87.253906 " fill-opacity="1" fill-rule="nonzero"/></g><g clip-path="url(#54a17f2277)"><path fill="#ffffff" d="M 117.597656 64.5625 L 243.71875 64.5625 L 243.71875 177.0625 L 117.597656 177.0625 Z M 117.597656 64.5625 " fill-opacity="1" fill-rule="nonzero"/></g><g clip-path="url(#f37722a4bc)"><path fill="#ffffff" d="M 216.488281 89.21875 L 259.355469 89.21875 L 259.355469 152.347656 L 216.488281 152.347656 Z M 216.488281 89.21875 " fill-opacity="1" fill-rule="nonzero"/></g><path fill="#000000" d="M 296.363281 135.078125 L 293.621094 127.371094 C 292.125 123.148438 287.390625 119.667969 283.15625 119.667969 L 273.4375 119.667969 C 266.207031 99.53125 257.488281 75.167969 254.746094 69.449219 C 250.757812 60.5 238.050781 56.523438 231.070312 54.535156 C 231.070312 54.535156 219.359375 50.058594 180.234375 50.058594 C 141.109375 50.058594 129.644531 54.535156 129.644531 54.535156 C 121.421875 57.269531 109.957031 61.246094 105.472656 69.699219 C 103.230469 73.925781 94.257812 98.785156 87.03125 119.667969 L 77.5625 119.667969 C 73.324219 119.667969 68.589844 123.148438 67.09375 127.371094 L 64.355469 135.078125 C 62.859375 139.304688 65.101562 142.785156 69.339844 142.785156 L 79.058594 142.785156 C 77.8125 146.265625 77.0625 148.253906 77.0625 148.253906 C 76.316406 149.496094 75.816406 155.214844 75.816406 156.957031 L 75.816406 227.308594 C 75.816406 231.785156 79.554688 235.511719 84.039062 235.511719 L 113.945312 235.511719 C 118.429688 235.511719 122.167969 231.785156 122.167969 227.308594 L 122.167969 212.394531 L 238.546875 212.394531 L 238.546875 227.308594 C 238.546875 231.785156 242.285156 235.511719 246.769531 235.511719 L 276.925781 235.511719 C 281.410156 235.511719 285.148438 231.785156 285.148438 227.308594 L 285.148438 156.957031 C 285.148438 155.464844 284.648438 149.496094 283.902344 148.253906 C 283.902344 148.253906 283.15625 146.265625 281.910156 142.785156 L 291.378906 142.785156 C 295.367188 142.785156 297.609375 139.304688 296.363281 135.078125 Z M 122.167969 178.335938 L 112.199219 171.621094 C 93.761719 170.132812 91.515625 176.59375 87.53125 169.632812 L 87.53125 161.183594 C 87.53125 152.976562 92.265625 152.730469 97.496094 152.730469 C 102.480469 152.730469 112.449219 156.957031 119.179688 159.9375 C 126.40625 163.171875 131.640625 160.4375 134.378906 171.125 C 134.132812 176.097656 131.390625 178.335938 122.167969 178.335938 Z M 104.726562 122.898438 C 110.953125 97.542969 121.421875 79.890625 122.917969 75.664062 C 123.914062 72.683594 121.421875 67.210938 180.484375 67.210938 C 239.542969 67.210938 236.304688 75.167969 236.554688 75.417969 C 239.292969 81.132812 250.261719 99.777344 255.992188 122.898438 C 255.992188 122.898438 233.8125 125.882812 183.222656 125.882812 C 132.636719 125.882812 104.726562 122.898438 104.726562 122.898438 Z M 226.585938 171.125 C 238.296875 156.707031 234.558594 163.171875 241.785156 159.9375 C 248.265625 156.957031 258.484375 152.730469 263.46875 152.730469 C 268.699219 152.730469 273.4375 152.976562 273.4375 161.183594 L 273.4375 169.632812 C 269.699219 176.347656 266.457031 170.378906 247.769531 172.121094 L 238.546875 178.085938 C 229.328125 178.335938 223.347656 174.855469 226.585938 171.125 Z M 226.585938 171.125 " fill-opacity="1" fill-rule="nonzero"/><g clip-path="url(#2f8abd68b3)"><g clip-path="url(#4296a4ffec)"><path fill="#ffffff" d="M 172.464844 133.726562 L 350.664062 133.726562 L 350.664062 311.929688 L 172.464844 311.929688 Z M 172.464844 133.726562 " fill-opacity="1" fill-rule="nonzero"/></g></g><g clip-path="url(#4a92b1988b)"><g clip-path="url(#1bfed05903)"><path fill="#ffffff" d="M 179.765625 141.027344 L 343.363281 141.027344 L 343.363281 304.628906 L 179.765625 304.628906 Z M 179.765625 141.027344 " fill-opacity="1" fill-rule="nonzero"/></g></g><g clip-path="url(#0dc7b4a60b)"><g clip-path="url(#236cbf0ca7)"><path stroke-linecap="butt" transform="matrix(0.75, 0, 0, 0.75, 179.763816, 141.028056)" fill="none" stroke-linejoin="miter" d="M 109.064919 -0.000950119 C 48.83054 -0.000950119 0.00241214 48.827178 0.00241214 109.061557 C 0.00241214 169.295936 48.83054 218.124064 109.064919 218.124064 C 169.29409 218.124064 218.127426 169.295936 218.127426 109.061557 C 218.127426 48.827178 169.29409 -0.000950119 109.064919 -0.000950119 Z M 109.064919 -0.000950119 " stroke="#000000" stroke-width="8" stroke-opacity="1" stroke-miterlimit="4"/></g></g><g clip-path="url(#aa1a3f06ee)"><path fill="#ffffff" d="M 156.609375 213.089844 L 384.246094 213.089844 L 384.246094 325.589844 L 156.609375 325.589844 Z M 156.609375 213.089844 " fill-opacity="1" fill-rule="nonzero"/></g><g clip-path="url(#915b80f4ea)"><path fill="#ffffff" d="M 297.4375 141.027344 L 359.988281 141.027344 L 359.988281 253.425781 L 297.4375 253.425781 Z M 297.4375 141.027344 " fill-opacity="1" fill-rule="nonzero"/></g><g clip-path="url(#a0e02ad266)"><path fill="#fe5f28" d="M 231.421875 221.703125 C 242.84375 221.703125 252.101562 210.460938 252.101562 196.589844 C 252.101562 182.71875 249.0625 171.472656 231.421875 171.472656 C 213.785156 171.472656 210.746094 182.71875 210.746094 196.589844 C 210.746094 210.460938 220.003906 221.703125 231.421875 221.703125 Z M 231.421875 221.703125 " fill-opacity="1" fill-rule="nonzero"/></g><g clip-path="url(#9401dee95d)"><path fill="#fe5f28" d="M 192.367188 260.050781 C 192.363281 259.207031 192.359375 259.8125 192.367188 260.050781 Z M 192.367188 260.050781 " fill-opacity="1" fill-rule="nonzero"/></g><g clip-path="url(#a1e7819a6c)"><path fill="#fe5f28" d="M 270.476562 260.710938 C 270.488281 260.480469 270.480469 259.105469 270.476562 260.710938 Z M 270.476562 260.710938 " fill-opacity="1" fill-rule="nonzero"/></g><g clip-path="url(#7224a63caf)"><path fill="#fe5f28" d="M 270.433594 259.039062 C 270.050781 234.875 266.894531 227.992188 242.746094 223.632812 C 242.746094 223.632812 239.347656 227.964844 231.425781 227.964844 C 223.5 227.964844 220.101562 223.632812 220.101562 223.632812 C 196.214844 227.941406 192.867188 234.726562 192.429688 258.253906 C 192.390625 260.175781 192.375 260.277344 192.367188 260.050781 C 192.371094 260.46875 192.371094 261.242188 192.371094 262.589844 C 192.371094 262.589844 198.121094 274.179688 231.425781 274.179688 C 264.726562 274.179688 270.476562 262.589844 270.476562 262.589844 C 270.476562 261.726562 270.476562 261.125 270.480469 260.714844 C 270.472656 260.851562 270.460938 260.585938 270.433594 259.039062 Z M 270.433594 259.039062 " fill-opacity="1" fill-rule="nonzero"/></g><g clip-path="url(#72fc439ca2)"><path fill="#181f3d" d="M 282.613281 211.964844 C 294.035156 211.964844 303.292969 200.71875 303.292969 186.847656 C 303.292969 172.976562 300.25 161.734375 282.613281 161.734375 C 264.976562 161.734375 261.9375 172.976562 261.9375 186.847656 C 261.9375 200.71875 271.195312 211.964844 282.613281 211.964844 Z M 282.613281 211.964844 " fill-opacity="1" fill-rule="nonzero"/></g><g clip-path="url(#dd2896ea71)"><path fill="#181f3d" d="M 243.558594 250.3125 C 243.554688 249.46875 243.550781 250.074219 243.558594 250.3125 Z M 243.558594 250.3125 " fill-opacity="1" fill-rule="nonzero"/></g><g clip-path="url(#ab164bc1e4)"><path fill="#181f3d" d="M 321.667969 250.972656 C 321.679688 250.742188 321.671875 249.367188 321.667969 250.972656 Z M 321.667969 250.972656 " fill-opacity="1" fill-rule="nonzero"/></g><g clip-path="url(#e07e08710f)"><path fill="#181f3d" d="M 321.625 249.300781 C 321.242188 225.136719 318.085938 218.253906 293.9375 213.890625 C 293.9375 213.890625 290.539062 218.222656 282.613281 218.222656 C 274.691406 218.222656 271.292969 213.890625 271.292969 213.890625 C 247.40625 218.203125 244.058594 224.984375 243.617188 248.515625 C 243.582031 250.433594 243.566406 250.535156 243.558594 250.3125 C 243.5625 250.730469 243.5625 251.503906 243.5625 252.851562 C 243.5625 252.851562 249.3125 264.441406 282.613281 264.441406 C 315.917969 264.441406 321.667969 252.851562 321.667969 252.851562 C 321.667969 251.984375 321.667969 251.382812 321.667969 250.972656 C 321.664062 251.113281 321.648438 250.84375 321.625 249.296875 Z M 321.625 249.300781 " fill-opacity="1" fill-rule="nonzero"/></g><g clip-path="url(#d7ca1fdbb8)"><path fill="#ffffff" d="M 188.886719 250.589844 L 329.851562 250.589844 L 329.851562 276.253906 L 188.886719 276.253906 Z M 188.886719 250.589844 " fill-opacity="1" fill-rule="nonzero"/></g><g clip-path="url(#f256e7f1c9)"><g clip-path="url(#452365082d)"><g clip-path="url(#12e5efac36)"><path fill="#ffffff" d="M 259.355469 255.632812 L 329.453125 231.675781 L 365.855469 338.1875 L 295.761719 362.144531 Z M 259.355469 255.632812 " fill-opacity="1" fill-rule="nonzero"/></g></g></g><g fill="#000000" fill-opacity="1"><g transform="translate(34.282199, 264.294948)"><g><path d="M 10.996094 3.503906 L 13.746094 7.359375 L 13.976562 6.765625 L 11.230469 2.90625 Z M 11.519531 2.160156 L 14.269531 6.019531 L 14.484375 5.460938 L 11.75 1.5625 Z M 12.039062 0.820312 L 14.773438 4.714844 L 15.007812 4.117188 L 12.273438 0.222656 Z M 12.5625 -0.523438 L 15.296875 3.371094 L 15.527344 2.773438 L 12.792969 -1.121094 Z M 13.085938 -1.867188 L 15.820312 2.03125 L 16.050781 1.433594 L 13.316406 -2.460938 Z M 13.605469 -3.207031 L 16.339844 0.6875 L 16.570312 0.0898438 L 13.839844 -3.804688 Z M 14.128906 -4.550781 L 16.863281 -0.65625 L 17.09375 -1.25 L 14.359375 -5.144531 Z M 14.648438 -5.890625 L 17.382812 -1.996094 L 17.617188 -2.59375 L 14.882812 -6.488281 Z M 15.171875 -7.234375 L 17.90625 -3.339844 L 18.136719 -3.933594 L 15.402344 -7.832031 Z M 15.691406 -8.574219 L 18.425781 -4.679688 L 18.660156 -5.277344 L 15.925781 -9.171875 Z M 41.15625 -10.820312 L 40.304688 -12.054688 L 38.40625 -14.679688 L 38.175781 -14.082031 L 40.921875 -10.226562 Z M 35.609375 -7.484375 L 38.359375 -3.625 L 38.589844 -4.222656 L 35.839844 -8.082031 Z M 29.347656 8.621094 L 32.097656 12.476562 L 32.328125 11.882812 L 29.582031 8.023438 Z M 29.871094 7.277344 L 32.621094 11.136719 L 32.851562 10.539062 L 30.101562 6.679688 Z M 30.390625 5.9375 L 33.140625 9.792969 L 33.375 9.199219 L 30.625 5.339844 Z M 36.652344 -10.167969 L 39.402344 -6.3125 L 39.632812 -6.90625 L 36.886719 -10.765625 Z M 30.914062 4.59375 L 33.664062 8.453125 L 33.894531 7.855469 L 31.144531 3.996094 Z M 31.957031 1.910156 L 34.707031 5.769531 L 34.9375 5.171875 L 32.191406 1.3125 Z M 36.132812 -8.828125 L 38.878906 -4.96875 L 39.113281 -5.566406 L 36.363281 -9.421875 Z M 37.695312 -12.851562 L 40.445312 -8.996094 L 40.675781 -9.589844 L 37.929688 -13.449219 Z M 31.4375 3.25 L 34.183594 7.109375 L 34.417969 6.511719 L 31.667969 2.65625 Z M 35.089844 -6.144531 L 37.835938 -2.285156 L 38.070312 -2.882812 L 35.320312 -6.738281 Z M 34.566406 -4.800781 L 37.316406 -0.941406 L 37.546875 -1.539062 L 34.796875 -5.398438 Z M 28.320312 11.265625 L 31.070312 15.125 L 31.285156 14.566406 L 28.539062 10.707031 Z M 33.523438 -2.117188 L 36.273438 1.742188 L 36.503906 1.144531 L 33.753906 -2.710938 Z M 34.042969 -3.457031 L 36.792969 0.398438 L 37.023438 -0.195312 L 34.277344 -4.054688 Z M 37.175781 -11.511719 L 39.921875 -7.652344 L 40.15625 -8.25 L 37.40625 -12.105469 Z M 28.828125 9.960938 L 31.589844 13.78125 L 31.808594 13.222656 L 29.058594 9.367188 Z M 32.480469 0.566406 L 35.226562 4.425781 L 35.460938 3.828125 L 32.710938 -0.0273438 Z M 33 -0.773438 L 35.75 3.082031 L 35.980469 2.488281 L 33.234375 -1.371094 Z M 13.3125 8.480469 L 13.457031 8.105469 L 10.707031 4.25 L 10.476562 4.84375 L 12.9375 8.335938 Z M 8.425781 4.046875 L 10.925781 7.550781 L 11.820312 7.898438 L 9.355469 4.410156 Z M 6.414062 3.265625 L 8.875 6.753906 L 9.808594 7.117188 L 7.308594 3.613281 Z M 29.640625 15.042969 L 30.351562 15.316406 L 27.851562 11.8125 L 27.179688 11.554688 Z M 16.214844 -9.917969 L 17.351562 -8.316406 L 16.417969 -10.441406 Z M 5.441406 2.117188 L 10.066406 3.914062 L 16.382812 -12.339844 L 26.433594 10.492188 L 27.664062 10.96875 L 37.925781 -15.425781 L 33.300781 -17.222656 L 26.792969 -0.484375 L 17.144531 -23.675781 L 15.6875 -24.242188 Z M 5.441406 2.117188 "/></g></g></g><g fill="#000000" fill-opacity="1"><g transform="translate(71.213307, 278.405584)"><g><path d="M 8.414062 -9.753906 C 6.183594 -1.65625 9.617188 3.191406 16.402344 5.0625 C 23.191406 6.933594 28.777344 4.574219 31.011719 -3.523438 L 35.390625 -19.410156 L 30.609375 -20.726562 L 26.238281 -4.878906 C 24.804688 0.324219 21.703125 1.792969 17.617188 0.667969 C 13.527344 -0.460938 11.773438 -3.269531 13.195312 -8.433594 L 17.578125 -24.320312 L 12.796875 -25.640625 Z M 31.4375 6.96875 L 28.226562 3.261719 C 28.105469 3.394531 27.988281 3.527344 27.828125 3.648438 L 31.039062 7.355469 C 31.199219 7.234375 31.316406 7.101562 31.4375 6.96875 Z M 30.59375 7.773438 L 27.332031 4.09375 L 26.90625 4.433594 L 30.167969 8.109375 C 30.316406 8.027344 30.433594 7.894531 30.59375 7.773438 Z M 27.300781 9.476562 L 24.109375 5.859375 C 23.921875 5.933594 23.734375 6.003906 23.523438 6.03125 L 26.714844 9.648438 Z M 33.539062 3.855469 L 30.347656 0.234375 L 30.082031 0.742188 L 33.277344 4.363281 Z M 32.234375 6.027344 L 29.015625 2.359375 C 28.933594 2.5 28.816406 2.636719 28.695312 2.769531 L 31.90625 6.472656 Z M 34.046875 2.625 L 30.890625 -0.984375 C 30.835938 -0.789062 30.746094 -0.609375 30.65625 -0.425781 L 33.847656 3.191406 C 33.898438 3 33.992188 2.816406 34.046875 2.625 Z M 32.929688 5.015625 L 29.710938 1.347656 C 29.628906 1.488281 29.507812 1.621094 29.417969 1.804688 L 32.636719 5.472656 C 32.71875 5.328125 32.808594 5.148438 32.929688 5.015625 Z M 29.605469 8.496094 L 26.382812 4.828125 L 25.902344 5.066406 L 29.125 8.734375 Z M 34.289062 -12.699219 L 37.414062 -9.140625 L 37.585938 -9.757812 L 34.457031 -13.316406 Z M 32.757812 -7.148438 L 35.882812 -3.589844 L 36.054688 -4.207031 L 32.925781 -7.765625 Z M 15.890625 -15.492188 L 19.015625 -11.933594 L 19.1875 -12.550781 L 16.058594 -16.109375 Z M 15.507812 -14.105469 L 18.632812 -10.546875 L 18.804688 -11.164062 L 15.675781 -14.722656 Z M 33.523438 -9.925781 L 36.648438 -6.367188 L 36.820312 -6.984375 L 33.691406 -10.542969 Z M 33.140625 -8.535156 L 36.265625 -4.976562 L 36.4375 -5.59375 L 33.308594 -9.152344 Z M 31.992188 -4.371094 L 35.117188 -0.8125 L 35.289062 -1.429688 L 32.160156 -4.988281 Z M 33.90625 -11.3125 L 37.03125 -7.753906 L 37.203125 -8.371094 L 34.074219 -11.929688 Z M 32.375 -5.761719 L 35.5 -2.203125 L 35.671875 -2.820312 L 32.542969 -6.378906 Z M 35.054688 -15.476562 L 38.179688 -11.917969 L 38.351562 -12.535156 L 35.222656 -16.09375 Z M 31.609375 -2.984375 L 34.734375 0.574219 L 34.90625 -0.0429688 L 31.777344 -3.601562 Z M 14.359375 -9.941406 L 17.484375 -6.382812 L 17.65625 -6.996094 L 14.527344 -10.558594 Z M 16.273438 -16.878906 L 19.398438 -13.320312 L 19.570312 -13.9375 L 16.441406 -17.496094 Z M 17.804688 -22.433594 L 20.929688 -18.875 L 21.097656 -19.492188 L 17.972656 -23.050781 Z M 13.976562 -8.550781 L 17.101562 -4.992188 L 17.273438 -5.609375 L 14.144531 -9.167969 Z M 17.039062 -19.65625 L 20.164062 -16.097656 L 20.332031 -16.714844 L 17.207031 -20.273438 Z M 15.125 -12.714844 L 18.25 -9.15625 L 18.421875 -9.773438 L 15.292969 -13.332031 Z M 34.671875 -14.089844 L 37.796875 -10.53125 L 37.96875 -11.148438 L 34.839844 -14.707031 Z M 14.742188 -11.328125 L 17.867188 -7.769531 L 18.039062 -8.386719 L 14.910156 -11.945312 Z M 16.65625 -18.269531 L 19.78125 -14.710938 L 19.949219 -15.328125 L 16.824219 -18.886719 Z M 35.4375 -16.863281 L 38.5625 -13.304688 L 38.734375 -13.921875 L 35.605469 -17.480469 Z M 17.421875 -21.042969 L 20.546875 -17.484375 L 20.714844 -18.101562 L 17.589844 -21.660156 Z M 13.425781 -5.507812 L 16.390625 -2.117188 C 16.445312 -2.3125 16.46875 -2.554688 16.535156 -2.785156 L 13.472656 -6.285156 C 13.4375 -6.003906 13.414062 -5.761719 13.425781 -5.507812 Z M 20.679688 6.40625 L 23.699219 9.894531 C 23.953125 9.882812 24.207031 9.871094 24.449219 9.894531 L 21.347656 6.386719 Z M 34.523438 1.347656 L 31.367188 -2.261719 C 31.316406 -2.070312 31.261719 -1.875 31.171875 -1.695312 L 34.324219 1.914062 C 34.378906 1.722656 34.46875 1.539062 34.523438 1.347656 Z M 28.496094 9.0625 L 25.273438 5.394531 L 24.792969 5.632812 L 27.984375 9.253906 Z M 16.71875 -3.605469 L 16.878906 -4.183594 L 13.761719 -7.78125 C 13.699219 -7.550781 13.644531 -7.355469 13.621094 -7.113281 Z M 39.074219 -15.15625 L 35.957031 -18.753906 L 35.789062 -18.136719 L 38.914062 -14.578125 Z M 25.933594 9.765625 L 22.808594 6.207031 L 22.207031 6.289062 L 25.292969 9.835938 Z M 22.769531 9.804688 L 19.738281 6.355469 L 19.003906 6.320312 L 21.941406 9.660156 C 22.210938 9.734375 22.492188 9.769531 22.769531 9.804688 Z M 19.941406 9.234375 L 20.867188 9.488281 L 17.96875 6.15625 C 17.699219 6.082031 17.417969 6.046875 17.109375 5.960938 Z M 13.703125 -3.355469 L 16.074219 -0.671875 C 16.140625 -0.609375 16.21875 -0.589844 16.296875 -0.566406 C 16.273438 -0.78125 16.285156 -0.984375 16.3125 -1.226562 L 13.46875 -4.460938 C 13.527344 -4.070312 13.597656 -3.71875 13.703125 -3.355469 Z M 18.691406 8.804688 L 15.980469 5.691406 C 15.632812 5.597656 15.296875 5.464844 14.988281 5.378906 L 17.578125 8.332031 C 17.941406 8.515625 18.316406 8.660156 18.691406 8.804688 Z M 13.875 5.652344 C 14.441406 6.304688 15.117188 6.867188 15.851562 7.359375 L 13.644531 4.839844 L 12.835938 4.453125 Z M 13.875 5.652344 "/></g></g></g><g fill="#000000" fill-opacity="1"><g transform="translate(108.28912, 288.56002)"><g><path d="M 21.3125 3.757812 L 24.902344 7.097656 L 25.253906 6.667969 L 21.621094 3.359375 Z M 22.03125 2.820312 L 25.628906 6.121094 L 25.980469 5.691406 L 22.347656 2.386719 Z M 23.476562 0.90625 L 27.113281 4.214844 L 27.425781 3.78125 L 23.832031 0.480469 Z M 11.46875 -1.980469 L 14.957031 1.222656 L 15.058594 0.589844 L 11.578125 -2.652344 Z M 24.203125 -0.0664062 L 27.832031 3.277344 L 28.148438 2.84375 L 24.558594 -0.496094 Z M 38.191406 9.34375 L 38.234375 8.824219 L 34.785156 5.628906 L 34.683594 6.257812 L 37.957031 9.304688 Z M 15.332031 -0.824219 L 11.839844 -4.027344 L 11.738281 -3.394531 L 15.226562 -0.191406 Z M 11.96875 -4.816406 L 15.460938 -1.613281 L 15.5625 -2.246094 L 12.074219 -5.449219 Z M 15.738281 -3.3125 L 15.511719 -3.917969 L 12.304688 -6.871094 L 12.195312 -6.199219 L 15.683594 -2.996094 Z M 37.8125 -16.9375 L 41.269531 -13.78125 L 41.375 -14.414062 L 37.921875 -17.609375 Z M 37.226562 -12.574219 L 40.683594 -9.417969 L 40.785156 -10.050781 L 37.335938 -13.246094 Z M 36.636719 -8.214844 L 40.09375 -5.058594 L 40.195312 -5.6875 L 36.746094 -8.886719 Z M 35.65625 -0.957031 L 39.105469 2.238281 L 39.214844 1.566406 L 35.757812 -1.589844 Z M 35.457031 0.507812 L 38.914062 3.667969 L 39.015625 3.035156 L 35.566406 -0.160156 Z M 14.828125 2.011719 L 11.34375 -1.230469 L 11.242188 -0.601562 L 14.730469 2.601562 Z M 11.011719 0.820312 L 14.5 4.023438 L 14.605469 3.394531 L 11.113281 0.191406 Z M 22.757812 1.84375 L 26.394531 5.152344 L 26.699219 4.757812 L 23.066406 1.449219 Z M 24.96875 -1.039062 L 28.558594 2.304688 L 28.875 1.867188 L 25.277344 -1.433594 Z M 14.269531 5.445312 L 14.371094 4.8125 L 10.882812 1.609375 L 10.777344 2.242188 L 14.230469 5.4375 Z M 35.265625 1.9375 L 38.714844 5.132812 L 38.820312 4.5 L 35.367188 1.304688 Z M 36.445312 -6.785156 L 39.894531 -3.589844 L 39.996094 -4.222656 L 36.546875 -7.417969 Z M 34.867188 4.871094 L 38.324219 8.027344 L 38.429688 7.394531 L 34.976562 4.199219 Z M 35.855469 -2.425781 L 39.304688 0.773438 L 39.40625 0.140625 L 35.957031 -3.054688 Z M 35.066406 3.402344 L 38.523438 6.5625 L 38.625 5.929688 L 35.167969 2.773438 Z M 38.210938 -19.871094 L 41.660156 -16.675781 L 41.765625 -17.308594 L 38.3125 -20.503906 Z M 37.621094 -15.511719 L 41.074219 -12.3125 L 41.175781 -12.945312 L 37.726562 -16.140625 Z M 37.03125 -11.148438 L 40.484375 -7.953125 L 40.585938 -8.582031 L 37.136719 -11.78125 Z M 36.246094 -5.320312 L 39.703125 -2.164062 L 39.804688 -2.792969 L 36.347656 -5.949219 Z M 38.011719 -18.40625 L 41.46875 -15.246094 L 41.574219 -15.878906 L 38.117188 -19.035156 Z M 36.054688 -3.890625 L 39.503906 -0.695312 L 39.605469 -1.328125 L 36.15625 -4.523438 Z M 37.421875 -14.042969 L 40.878906 -10.886719 L 40.984375 -11.519531 L 37.527344 -14.675781 Z M 36.835938 -9.679688 L 40.292969 -6.523438 L 40.394531 -7.15625 L 36.9375 -10.3125 Z M 25.691406 -1.972656 L 29.074219 1.128906 L 29.144531 0.453125 L 26.003906 -2.410156 Z M 8.925781 2.183594 L 12.058594 5.085938 L 13.046875 5.246094 L 9.910156 2.34375 Z M 38.488281 -21.8125 L 38.382812 -21.179688 L 41.839844 -18.023438 L 41.9375 -18.617188 Z M 20.019531 4.234375 L 23.191406 7.140625 L 24.140625 7.296875 L 20.898438 4.296875 L 20.847656 4.371094 Z M 30.480469 5.695312 L 33.613281 8.597656 L 34.601562 8.757812 L 31.425781 5.851562 Z M 6.753906 1.828125 L 9.925781 4.738281 L 10.875 4.890625 L 7.738281 1.992188 Z M 32.648438 6.050781 L 35.785156 8.953125 L 36.730469 9.105469 L 33.558594 6.199219 Z M 17.558594 -15.984375 L 20.34375 -13.421875 L 19.921875 -14.585938 L 17.132812 -17.105469 Z M 16.628906 -18.484375 L 19.414062 -15.925781 L 18.988281 -17.046875 L 16.242188 -19.601562 Z M 15.730469 -20.941406 L 18.484375 -18.425781 L 18.058594 -19.550781 L 15.3125 -22.101562 Z M 14.769531 -23.488281 L 17.554688 -20.929688 L 17.160156 -22.003906 L 14.34375 -24.613281 Z M 18.453125 -13.527344 L 21.238281 -10.964844 L 20.851562 -12.082031 L 18.070312 -14.644531 Z M 26.417969 -2.949219 L 29.265625 -0.296875 L 29.371094 -0.929688 L 26.730469 -3.382812 Z M 19.421875 -11.019531 L 22.175781 -8.503906 L 21.742188 -9.585938 L 19 -12.140625 Z M 12.464844 -7.613281 L 15.039062 -5.25 L 14.6875 -6.320312 L 12.570312 -8.246094 Z M 27.144531 -3.925781 L 29.503906 -1.757812 L 29.601562 -2.347656 L 27.449219 -4.320312 Z M 20.320312 -8.5625 L 22.113281 -6.890625 L 22.46875 -7.320312 L 19.929688 -9.640625 Z M 27.863281 -4.863281 L 29.738281 -3.179688 L 29.839844 -3.808594 L 28.175781 -5.296875 Z M 12.699219 -9.035156 L 14.207031 -7.613281 L 13.863281 -8.722656 L 12.800781 -9.667969 Z M 28.589844 -5.835938 L 29.960938 -4.558594 L 30.070312 -5.230469 L 28.902344 -6.273438 Z M 29.316406 -6.8125 L 30.191406 -5.980469 L 30.296875 -6.613281 L 29.628906 -7.25 Z M 21.25 -6.0625 L 21.390625 -5.917969 L 21.710938 -6.390625 L 20.863281 -7.175781 Z M 30.042969 -7.789062 L 30.425781 -7.402344 L 30.535156 -8.074219 L 30.355469 -8.222656 Z M 12.929688 -10.457031 L 13.390625 -10.054688 L 13.03125 -11.085938 Z M 37.820312 -22.449219 L 35.648438 -22.800781 L 21.105469 -4.421875 L 12.871094 -26.511719 L 10.699219 -26.867188 L 5.367188 0.875 L 10.144531 1.652344 L 12.777344 -14.007812 L 18.832031 3.3125 L 20.527344 3.589844 L 31.734375 -11.203125 L 29.253906 4.765625 L 34.070312 5.550781 Z M 37.820312 -22.449219 "/></g></g></g><g fill="#000000" fill-opacity="1"><g transform="translate(151.714558, 295.256801)"><g><path d="M 4.359375 -7.171875 C 4.121094 -2.859375 7.519531 0.972656 13.867188 1.320312 C 17.0625 1.496094 20.050781 0.335938 22.664062 -1.324219 L 26.324219 2.84375 C 26.324219 2.84375 29.613281 -0.222656 29.699219 -0.335938 L 26.34375 -4.167969 C 29.589844 -7.113281 31.597656 -10.128906 31.597656 -10.128906 L 28.257812 -12.792969 C 28.257812 -12.792969 26.457031 -9.886719 23.667969 -7.238281 L 17.984375 -13.117188 C 21.007812 -14.230469 23.789062 -16.003906 24.039062 -20.554688 C 24.261719 -24.667969 21.261719 -27.636719 16.46875 -27.898438 C 11.675781 -28.164062 8.011719 -25.597656 7.75 -20.847656 C 7.644531 -18.890625 8.449219 -16.761719 10.488281 -14.527344 C 7.378906 -13.296875 4.59375 -11.484375 4.359375 -7.171875 Z M 14.5 -2.929688 C 11.304688 -3.105469 9.46875 -4.6875 9.609375 -7.246094 C 9.730469 -9.480469 11.234375 -10.601562 13.203125 -11.414062 L 19.910156 -4.398438 C 18.253906 -3.445312 16.417969 -2.828125 14.5 -2.929688 Z M 12.703125 -20.574219 C 12.808594 -22.492188 14.132812 -23.980469 16.246094 -23.867188 C 18.363281 -23.75 19.476562 -22.085938 19.371094 -20.210938 C 19.257812 -18.09375 17.519531 -17.066406 15.308594 -16.226562 C 13.753906 -17.832031 12.621094 -19.058594 12.703125 -20.574219 Z M 35.925781 -6.484375 L 31.769531 -9.558594 L 31.503906 -9.089844 L 35.621094 -6.023438 Z M 32.679688 4.550781 L 28.675781 1.570312 C 28.546875 1.722656 28.378906 1.832031 28.253906 1.945312 L 32.257812 4.929688 C 32.386719 4.777344 32.550781 4.664062 32.679688 4.550781 Z M 31.792969 5.386719 L 27.789062 2.402344 L 27.367188 2.78125 L 31.410156 5.765625 Z M 34.457031 -4.5625 L 30.457031 -7.546875 C 30.328125 -7.433594 30.242188 -7.277344 30.113281 -7.125 L 34.113281 -4.140625 Z M 32.878906 -2.765625 L 28.910156 -5.667969 L 28.53125 -5.289062 L 32.496094 -2.347656 Z M 15.425781 -6.6875 L 11.503906 -9.625 L 11.082031 -9.246094 L 15.046875 -6.308594 Z M 35.191406 -5.523438 L 31.113281 -8.550781 L 30.847656 -8.085938 L 34.890625 -5.101562 Z M 21.105469 -13.785156 L 24.953125 -10.933594 L 25.453125 -11.265625 L 21.5625 -14.121094 Z M 33.523438 3.71875 L 29.519531 0.773438 L 29.136719 1.152344 L 33.144531 4.097656 Z M 24.152344 -17.503906 L 28.078125 -14.605469 L 28.230469 -15.160156 L 24.339844 -18.054688 C 24.289062 -17.859375 24.242188 -17.699219 24.152344 -17.503906 Z M 18.21875 -19.59375 L 14.289062 -22.492188 L 13.910156 -22.113281 L 17.875 -19.171875 C 17.960938 -19.324219 18.089844 -19.4375 18.21875 -19.59375 Z M 32.027344 -1.890625 L 28.0625 -4.792969 L 27.679688 -4.414062 L 31.648438 -1.511719 Z M 22.953125 -15.40625 L 26.84375 -12.511719 C 26.972656 -12.664062 27.097656 -12.777344 27.1875 -12.933594 L 23.257812 -15.832031 Z M 14.191406 -4.589844 L 10.34375 -7.484375 L 10.308594 -6.804688 L 14.117188 -3.992188 C 14.128906 -4.195312 14.140625 -4.433594 14.191406 -4.589844 Z M 33.6875 -3.644531 L 29.683594 -6.585938 L 29.339844 -6.207031 L 33.304688 -3.265625 Z M 14.65625 -5.765625 L 10.730469 -8.707031 L 10.503906 -8.199219 L 14.429688 -5.300781 C 14.480469 -5.457031 14.566406 -5.613281 14.65625 -5.765625 Z M 28.542969 -17.945312 L 24.769531 -20.714844 L 24.734375 -20.078125 L 28.542969 -17.265625 C 28.558594 -17.503906 28.527344 -17.707031 28.542969 -17.945312 Z M 23.652344 -16.410156 L 27.539062 -13.515625 L 27.804688 -13.980469 L 23.875 -16.878906 Z M 23.546875 3.773438 L 19.734375 1 L 19.160156 1.210938 L 22.933594 4.019531 Z M 20.472656 0.679688 L 24.285156 3.492188 L 24.859375 3.242188 L 21.007812 0.429688 C 20.839844 0.539062 20.636719 0.609375 20.472656 0.679688 Z M 24.332031 -10.566406 L 20.484375 -13.417969 L 19.949219 -13.167969 L 23.796875 -10.3125 C 24 -10.382812 24.164062 -10.453125 24.332031 -10.566406 Z M 24.539062 -18.726562 L 28.386719 -15.871094 C 28.398438 -16.070312 28.449219 -16.269531 28.460938 -16.46875 L 24.613281 -19.324219 C 24.601562 -19.121094 24.589844 -18.921875 24.539062 -18.726562 Z M 26.375 -12.054688 L 22.488281 -14.914062 L 22.109375 -14.574219 L 25.996094 -11.675781 Z M 22.160156 4.257812 L 18.386719 1.445312 C 18.183594 1.515625 17.9375 1.582031 17.738281 1.613281 L 21.46875 4.417969 Z M 17.519531 -18.589844 L 13.597656 -21.527344 L 13.445312 -20.976562 L 17.335938 -18.117188 C 17.382812 -18.277344 17.433594 -18.433594 17.519531 -18.589844 Z M 20.578125 4.570312 L 16.84375 1.804688 C 16.601562 1.871094 16.359375 1.898438 16.117188 1.921875 L 19.773438 4.648438 Z M 28.195312 -19.6875 L 24.652344 -22.285156 C 24.71875 -22.039062 24.707031 -21.800781 24.734375 -21.558594 L 28.390625 -18.875 Z M 18.492188 4.65625 L 18.691406 4.667969 L 15.109375 2.027344 L 14.226562 2.0625 L 17.65625 4.570312 C 17.933594 4.625 18.210938 4.640625 18.492188 4.65625 Z M 34.160156 3.113281 L 33.027344 1.808594 L 30.410156 -0.0976562 L 30.027344 0.28125 L 34.03125 3.226562 Z M 18.652344 -20.25 C 18.664062 -20.410156 18.632812 -20.609375 18.640625 -20.769531 L 15.523438 -23.105469 C 15.28125 -23.039062 15.078125 -23.007812 14.871094 -22.898438 L 18.648438 -20.128906 Z M 16.179688 -7.246094 L 14.890625 -8.597656 L 12.542969 -10.328125 C 12.339844 -10.261719 12.210938 -10.148438 12.046875 -10.035156 L 15.972656 -7.136719 Z M 16.265625 4.375 L 13.03125 1.953125 C 12.632812 1.933594 12.234375 1.871094 11.878906 1.8125 L 14.804688 3.976562 C 15.277344 4.121094 15.75 4.265625 16.265625 4.375 Z M 13.75 -19.234375 L 16.292969 -17.375 L 16.828125 -17.625 L 13.402344 -20.175781 C 13.464844 -19.851562 13.570312 -19.566406 13.75 -19.234375 Z M 25.996094 -22.691406 L 24.109375 -24.078125 C 24.253906 -23.789062 24.355469 -23.460938 24.460938 -23.136719 L 27.734375 -20.753906 C 27.292969 -21.5 26.6875 -22.132812 25.996094 -22.691406 Z M 21.664062 0.105469 L 25.285156 2.746094 L 23.511719 0.765625 L 22.203125 -0.1875 Z M 23.097656 -9.992188 L 19.25 -12.847656 L 21.792969 -10.261719 L 22.523438 -9.742188 Z M 29.566406 -1.546875 L 30.992188 -0.507812 L 30.804688 -0.71875 L 31.140625 -1.019531 L 27.90625 -3.441406 Z M 13.308594 -3.796875 L 10.496094 -5.875 C 10.878906 -4.8125 11.84375 -4.117188 13.308594 -3.796875 Z M 16.644531 -23.082031 L 18.300781 -21.832031 C 17.972656 -22.449219 17.4375 -22.917969 16.644531 -23.082031 Z M 15.515625 -17.054688 L 15.59375 -17.050781 L 15.289062 -17.308594 Z M 15.515625 -17.054688 "/></g></g></g><g fill="#000000" fill-opacity="1"><g transform="translate(189.516809, 297.167727)"><g><path d="M 31.242188 -11.894531 L 35.402344 -9.40625 L 35.492188 -10.011719 L 31.335938 -12.460938 Z M 35.273438 -8.71875 L 31.074219 -11.207031 C 31.039062 -11.046875 30.96875 -10.882812 30.9375 -10.679688 L 35.136719 -8.191406 Z M 33.988281 -5.296875 L 29.75 -7.824219 L 29.488281 -7.371094 L 33.691406 -4.839844 Z M 34.929688 -7.5 L 30.726562 -10.03125 L 30.550781 -9.5 L 34.75 -7.011719 C 34.824219 -7.175781 34.894531 -7.339844 34.929688 -7.5 Z M 30.042969 -8.398438 L 34.28125 -5.910156 L 34.5 -6.359375 L 30.257812 -8.886719 Z M 33.355469 -4.265625 L 29.117188 -6.792969 L 28.816406 -6.339844 L 33.054688 -3.851562 Z M 26.121094 1.195312 L 22.046875 -1.21875 C 21.851562 -1.132812 21.613281 -1.039062 21.414062 -0.992188 L 25.410156 1.425781 C 25.648438 1.335938 25.882812 1.246094 26.121094 1.195312 Z M 28.746094 -0.046875 L 24.632812 -2.460938 L 24.085938 -2.15625 L 28.199219 0.257812 C 28.394531 0.167969 28.59375 0.078125 28.746094 -0.046875 Z M 10.492188 -23.347656 L 10.515625 -22.828125 L 14.589844 -20.414062 L 14.5625 -21.054688 L 10.691406 -23.359375 Z M 29.875 -0.742188 L 25.714844 -3.230469 C 25.5625 -3.105469 25.40625 -2.976562 25.25 -2.890625 L 29.410156 -0.441406 Z M 35.632812 -11.339844 L 31.472656 -13.789062 C 31.484375 -13.589844 31.453125 -13.386719 31.421875 -13.183594 L 35.578125 -10.734375 Z M 31.800781 -2.390625 L 27.601562 -4.878906 L 27.21875 -4.503906 L 31.417969 -2.015625 Z M 10.78125 -17.074219 L 14.855469 -14.660156 L 14.828125 -15.300781 L 10.753906 -17.714844 Z M 10.648438 -19.953125 L 14.722656 -17.539062 L 14.695312 -18.175781 L 10.617188 -20.589844 Z M 10.714844 -18.515625 L 14.789062 -16.101562 L 14.761719 -16.738281 L 10.6875 -19.152344 Z M 10.980469 -12.761719 L 15.058594 -10.347656 L 15.027344 -10.984375 L 10.953125 -13.398438 Z M 10.582031 -21.390625 L 14.65625 -18.976562 L 14.628906 -19.617188 L 10.550781 -22.03125 Z M 11.113281 -9.882812 L 15.191406 -7.46875 L 15.160156 -8.109375 L 11.085938 -10.523438 Z M 10.914062 -14.199219 L 14.992188 -11.785156 L 14.960938 -12.425781 L 10.886719 -14.839844 Z M 11.046875 -11.320312 L 15.125 -8.90625 L 15.09375 -9.546875 L 11.019531 -11.960938 Z M 10.847656 -15.636719 L 14.925781 -13.222656 L 14.894531 -13.863281 L 10.820312 -16.277344 Z M 11.179688 -8.445312 L 15.257812 -6.03125 L 15.226562 -6.671875 L 11.152344 -9.085938 Z M 32.601562 -3.308594 L 28.402344 -5.796875 L 28.058594 -5.421875 L 32.257812 -2.894531 Z M 30.882812 -1.507812 L 26.679688 -4.035156 L 26.257812 -3.65625 L 30.453125 -1.207031 Z M 35.617188 -12.539062 L 35.605469 -12.738281 L 31.492188 -15.152344 L 31.519531 -14.550781 L 35.597656 -12.097656 C 35.589844 -12.257812 35.625 -12.378906 35.617188 -12.539062 Z M 35.417969 -14.25 L 31.421875 -16.628906 C 31.472656 -16.390625 31.484375 -16.191406 31.496094 -15.953125 L 35.527344 -13.574219 Z M 35.0625 -15.835938 L 31.152344 -18.179688 L 31.304688 -17.464844 L 35.257812 -15.085938 C 35.207031 -15.363281 35.15625 -15.601562 35.0625 -15.835938 Z M 27.496094 0.609375 L 23.378906 -1.800781 L 22.832031 -1.535156 L 26.90625 0.878906 Z M 24.5 1.628906 L 20.546875 -0.710938 L 19.835938 -0.515625 L 23.746094 1.785156 Z M 22.714844 1.953125 L 18.882812 -0.3125 C 18.605469 -0.261719 18.328125 -0.207031 18.050781 -0.195312 L 21.796875 2.035156 C 22.117188 2.019531 22.433594 2.003906 22.714844 1.953125 Z M 11.582031 0.183594 L 15.285156 2.375 L 16.285156 2.328125 L 12.578125 0.140625 Z M 34.421875 -17.609375 L 30.675781 -19.835938 L 30.949219 -19.089844 L 34.738281 -16.820312 C 34.644531 -17.097656 34.550781 -17.375 34.421875 -17.609375 Z M 15.976562 -0.0195312 L 19.640625 2.175781 L 20.640625 2.128906 L 16.933594 -0.101562 C 16.773438 -0.09375 16.613281 -0.046875 16.453125 -0.0390625 Z M 14.085938 -23.515625 L 17.753906 -21.320312 L 18.75 -21.367188 L 15.046875 -23.558594 Z M 11.890625 -23.414062 L 15.59375 -21.222656 L 16.554688 -21.265625 L 12.890625 -23.460938 Z M 9.421875 0.285156 L 13.085938 2.476562 L 14.085938 2.429688 L 10.382812 0.242188 Z M 13.777344 0.0820312 L 17.484375 2.273438 L 18.441406 2.230469 L 14.777344 0.0390625 Z M 7.226562 0.386719 L 10.929688 2.578125 L 11.890625 2.53125 L 8.222656 0.339844 Z M 33.242188 -19.714844 L 29.867188 -21.722656 C 30.039062 -21.449219 30.132812 -21.171875 30.265625 -20.859375 L 33.890625 -18.703125 Z M 20.308594 -21.441406 C 20.507812 -21.449219 20.710938 -21.457031 20.949219 -21.429688 L 17.613281 -23.4375 C 17.171875 -23.496094 16.769531 -23.558594 16.328125 -23.578125 L 19.949219 -21.421875 Z M 29.71875 -23.195312 L 28.5625 -23.902344 L 28.398438 -24.015625 C 28.65625 -23.667969 28.953125 -23.28125 29.167969 -22.929688 L 32.09375 -21.183594 C 31.417969 -21.953125 30.585938 -22.636719 29.71875 -23.195312 Z M 13.140625 -5.894531 L 14.101562 -5.9375 L 11.21875 -7.644531 L 11.246094 -7.007812 Z M 11.304688 -5.808594 L 11.941406 -5.835938 L 11.285156 -6.207031 Z M 5.832031 -0.269531 L 16.421875 -0.757812 C 25.011719 -1.15625 31.164062 -7.488281 30.792969 -15.519531 C 30.417969 -23.667969 23.832031 -29.25 15.121094 -28.847656 L 4.535156 -28.359375 Z M 15.371094 -24.292969 C 21.007812 -24.554688 25.226562 -20.707031 25.484375 -15.191406 C 25.738281 -9.71875 21.683594 -5.566406 16.25 -5.316406 L 10.617188 -5.054688 L 9.738281 -24.035156 Z M 15.371094 -24.292969 "/></g></g></g><g fill="#000000" fill-opacity="1"><g transform="translate(228.873989, 295.059437)"><g><path d="M 5.777344 -0.835938 L 10.6875 -1.550781 L 9.515625 -9.625 L 12.566406 -10.066406 C 13.078125 -10.140625 13.554688 -10.210938 14.023438 -10.316406 C 17.664062 -8.90625 18.191406 -2.476562 25.117188 -3.480469 C 26.742188 -3.714844 27.738281 -4.101562 27.738281 -4.101562 L 27.105469 -8.457031 L 25.996094 -8.296875 C 22.671875 -7.8125 21.660156 -10.617188 19.296875 -12.132812 C 22.753906 -14.492188 23.628906 -18.785156 23.207031 -21.671875 C 22.367188 -27.492188 18.054688 -31.03125 10.652344 -29.957031 L 1.746094 -28.664062 Z M 10.949219 -25.390625 C 15.582031 -26.0625 17.460938 -23.953125 17.90625 -20.902344 C 18.347656 -17.855469 17.117188 -15.171875 12.527344 -14.507812 L 8.886719 -13.980469 L 7.308594 -24.863281 Z M 28.007812 -15.054688 L 23.585938 -17.121094 L 23.421875 -16.570312 L 27.84375 -14.503906 Z M 28.375 -17.53125 L 24 -19.566406 L 23.960938 -18.992188 L 28.34375 -16.921875 Z M 20.863281 -12.480469 L 25.246094 -10.410156 L 25.285156 -10.414062 L 25.667969 -10.835938 L 21.292969 -12.867188 Z M 27.613281 -13.863281 L 23.1875 -15.972656 C 23.128906 -15.800781 23.074219 -15.632812 22.980469 -15.457031 L 27.402344 -13.390625 Z M 27.582031 -21.902344 L 23.464844 -23.8125 L 23.648438 -23.109375 L 27.855469 -21.132812 Z M 28.28125 -16.226562 L 23.859375 -18.292969 C 23.84375 -18.128906 23.789062 -17.957031 23.777344 -17.753906 L 28.160156 -15.683594 Z M 28.34375 -18.859375 L 24.007812 -20.898438 L 24.015625 -20.292969 L 28.390625 -18.261719 C 28.363281 -18.460938 28.375 -18.664062 28.34375 -18.859375 Z M 32.816406 -1.6875 L 32.742188 -2.199219 L 28.449219 -4.207031 L 28.535156 -3.613281 L 28.496094 -3.605469 L 32.664062 -1.625 C 32.742188 -1.636719 32.816406 -1.6875 32.816406 -1.6875 Z M 8.125 -24.253906 L 8.199219 -23.742188 L 12.488281 -21.734375 L 12.398438 -22.367188 L 8.320312 -24.285156 Z M 22.445312 -14.410156 L 26.824219 -12.335938 L 27.125 -12.785156 L 22.703125 -14.851562 Z M 8.40625 -22.316406 L 12.695312 -20.3125 L 12.605469 -20.945312 L 8.3125 -22.949219 Z M 10.675781 -6.640625 L 14.96875 -4.636719 L 14.878906 -5.269531 L 10.585938 -7.273438 Z M 10.46875 -8.066406 L 14.761719 -6.058594 L 14.671875 -6.695312 L 10.378906 -8.699219 Z M 11.296875 -2.367188 L 15.589844 -0.359375 L 15.496094 -0.992188 L 11.203125 -3 Z M 10.882812 -5.214844 L 15.175781 -3.210938 L 15.082031 -3.84375 L 10.792969 -5.847656 Z M 28.335938 -4.996094 L 32.625 -2.992188 L 32.535156 -3.625 L 28.242188 -5.628906 Z M 9.023438 -18.039062 L 13.316406 -16.035156 L 13.222656 -16.667969 L 8.933594 -18.671875 Z M 8.609375 -20.890625 L 12.902344 -18.886719 L 12.8125 -19.519531 L 8.519531 -21.523438 Z M 11.089844 -3.789062 L 15.382812 -1.785156 L 15.289062 -2.417969 L 11 -4.421875 Z M 8.816406 -19.464844 L 13.109375 -17.460938 L 13.019531 -18.09375 L 8.726562 -20.097656 Z M 28.054688 -20.3125 L 23.847656 -22.289062 L 23.9375 -21.65625 L 28.230469 -19.652344 C 28.195312 -19.890625 28.128906 -20.082031 28.054688 -20.3125 Z M 15.761719 0.828125 L 15.703125 0.429688 L 11.40625 -1.613281 L 11.496094 -0.980469 L 15.40625 0.878906 Z M 26.464844 -11.757812 L 22.042969 -13.824219 L 21.738281 -13.417969 L 26.121094 -11.34375 Z M 31.644531 -1.394531 L 27.570312 -3.308594 L 26.792969 -3.078125 L 30.785156 -1.191406 Z M 11.046875 -9.117188 L 14.945312 -7.300781 L 15.9375 -7.441406 L 12.035156 -9.261719 Z M 7.1875 -0.316406 L 11.050781 1.511719 L 12.039062 1.367188 L 8.179688 -0.457031 Z M 9.507812 -24.457031 L 13.410156 -22.636719 L 14.359375 -22.773438 L 10.5 -24.597656 Z M 9.367188 -0.628906 L 13.226562 1.195312 L 14.21875 1.050781 L 10.316406 -0.769531 Z M 32.183594 -6.039062 L 27.886719 -8.085938 L 27.972656 -7.492188 L 32.265625 -5.484375 Z M 26.644531 -23.625 L 22.78125 -25.449219 L 23.132812 -24.695312 L 27.121094 -22.847656 C 26.960938 -23.105469 26.84375 -23.371094 26.644531 -23.625 Z M 16.378906 -23.066406 L 16.238281 -23.207031 L 12.941406 -24.75 C 12.574219 -24.777344 12.128906 -24.796875 11.691406 -24.730469 L 15.546875 -22.945312 Z M 29.554688 -1.050781 L 25.699219 -2.835938 L 24.746094 -2.699219 L 28.257812 -1.066406 C 28.671875 -1.003906 29.074219 -1.023438 29.554688 -1.050781 Z M 12.265625 -15.195312 L 13.214844 -15.332031 L 9.140625 -17.25 L 9.230469 -16.617188 Z M 28.128906 -6.421875 L 32.417969 -4.417969 L 32.34375 -4.933594 L 28.054688 -6.9375 Z M 24.304688 -9.667969 C 24.410156 -9.761719 24.5625 -9.824219 24.710938 -9.925781 L 21.023438 -11.65625 C 21.261719 -11.40625 21.5 -11.160156 21.773438 -10.957031 C 21.875 -10.808594 22.015625 -10.667969 22.152344 -10.566406 L 24.625 -9.390625 Z M 23.273438 -26.53125 L 21.625 -27.304688 L 22.230469 -26.460938 L 25.65625 -24.855469 C 24.953125 -25.523438 24.183594 -26.097656 23.273438 -26.53125 Z M 9.34375 -15.824219 L 9.4375 -15.191406 L 10.128906 -14.886719 L 11.078125 -15.023438 Z M 13.617188 -9.492188 C 13.503906 -9.433594 13.386719 -9.417969 13.269531 -9.402344 L 15.222656 -8.472656 C 14.757812 -8.890625 14.257812 -9.261719 13.617188 -9.492188 Z M 13.617188 -9.492188 "/></g></g></g><g fill="#000000" fill-opacity="1"><g transform="translate(263.659203, 289.609392)"><g><path d="M 8.46875 -15.132812 L 12.894531 -13.441406 L 12.753906 -14.066406 L 8.328125 -15.757812 Z M 10.941406 -3.878906 L 15.367188 -2.191406 L 15.230469 -2.816406 L 10.804688 -4.503906 Z M 11.25 -2.472656 L 15.675781 -0.785156 L 15.539062 -1.410156 L 11.113281 -3.097656 Z M 7.230469 -20.757812 L 11.65625 -19.066406 L 11.519531 -19.691406 L 7.09375 -21.382812 Z M 5.992188 -26.382812 L 10.417969 -24.691406 L 10.28125 -25.316406 L 5.855469 -27.007812 Z M 6.613281 -23.570312 L 11.039062 -21.878906 L 10.898438 -22.503906 L 6.472656 -24.195312 Z M 6.300781 -24.976562 L 10.726562 -23.285156 L 10.589844 -23.910156 L 6.164062 -25.601562 Z M 8.15625 -16.539062 L 12.582031 -14.847656 L 12.445312 -15.472656 L 8.019531 -17.164062 Z M 7.539062 -19.351562 L 11.964844 -17.660156 L 11.828125 -18.285156 L 7.402344 -19.976562 Z M 9.703125 -9.503906 L 14.128906 -7.816406 L 13.992188 -8.441406 L 9.566406 -10.128906 Z M 9.394531 -10.910156 L 13.820312 -9.222656 L 13.683594 -9.847656 L 9.257812 -11.535156 Z M 8.777344 -13.722656 L 13.203125 -12.035156 L 13.066406 -12.660156 L 8.640625 -14.351562 Z M 10.632812 -5.285156 L 15.058594 -3.597656 L 14.921875 -4.222656 L 10.496094 -5.910156 Z M 7.847656 -17.945312 L 12.273438 -16.253906 L 12.136719 -16.878906 L 7.710938 -18.570312 Z M 6.921875 -22.164062 L 11.347656 -20.472656 L 11.207031 -21.097656 L 6.785156 -22.789062 Z M 5.683594 -27.789062 L 10.109375 -26.097656 L 9.996094 -26.605469 L 5.570312 -28.296875 Z M 10.324219 -6.691406 L 14.75 -5.003906 L 14.609375 -5.628906 L 10.183594 -7.316406 Z M 10.011719 -8.097656 L 14.4375 -6.410156 L 14.300781 -7.035156 L 9.875 -8.722656 Z M 9.085938 -12.316406 L 13.511719 -10.628906 L 13.375 -11.253906 L 8.949219 -12.941406 Z M 8.515625 -1.136719 L 12.535156 0.394531 L 13.277344 0.234375 L 9.296875 -1.308594 Z M 10.351562 -1.539062 L 14.332031 0 L 15.308594 -0.214844 L 11.289062 -1.746094 Z M 9.75 -27.738281 L 5.3125 -29.46875 L 5.441406 -28.882812 L 9.867188 -27.191406 Z M 10.894531 0.757812 L 11.597656 0.601562 L 7.578125 -0.929688 L 6.914062 -0.78125 Z M 5.703125 -1.253906 L 10.546875 -2.320312 L 4.507812 -29.78125 L -0.335938 -28.714844 Z M 5.703125 -1.253906 "/></g></g></g><g fill="#000000" fill-opacity="1"><g transform="translate(283.536598, 285.394881)"><g><path d="M 20.648438 -30.121094 L 25.324219 -28.71875 L 25.417969 -29.246094 L 20.730469 -30.6875 Z M 19.078125 -19.300781 L 23.800781 -17.871094 L 23.882812 -18.4375 L 19.167969 -19.828125 Z M 19.582031 -22.914062 L 24.308594 -21.488281 L 24.390625 -22.054688 L 19.675781 -23.445312 Z M 20.457031 -28.9375 L 25.144531 -27.496094 L 25.226562 -28.0625 L 20.550781 -29.464844 Z M 20.089844 -26.53125 L 24.816406 -25.101562 L 24.898438 -25.667969 L 20.183594 -27.058594 Z M 17.136719 -4.820312 L 21.851562 -3.429688 L 21.902344 -3.949219 L 17.230469 -5.347656 Z M 17.3125 -6.042969 L 21.988281 -4.640625 L 22.082031 -5.171875 L 17.367188 -6.558594 Z M 17.464844 -7.214844 L 22.179688 -5.824219 L 22.222656 -6.378906 L 17.546875 -7.78125 Z M 17.644531 -8.4375 L 22.320312 -7.035156 L 22.410156 -7.5625 L 17.6875 -8.992188 Z M 17.78125 -9.648438 L 22.507812 -8.21875 L 22.550781 -8.773438 L 17.875 -10.175781 Z M 17.960938 -10.867188 L 22.648438 -9.429688 L 22.730469 -9.996094 L 18.015625 -11.386719 Z M 18.289062 -13.261719 L 22.964844 -11.863281 L 23.058594 -12.390625 L 18.332031 -13.820312 Z M 18.429688 -14.472656 L 23.15625 -13.046875 L 23.199219 -13.601562 L 18.523438 -15.003906 Z M 18.757812 -16.867188 L 23.472656 -15.476562 L 23.527344 -15.996094 L 18.839844 -17.433594 Z M 18.113281 -12.042969 L 22.824219 -10.652344 L 22.878906 -11.167969 L 18.191406 -12.609375 Z M 19.265625 -20.484375 L 23.980469 -19.09375 L 24.035156 -19.609375 L 19.347656 -21.050781 Z M 19.773438 -24.097656 L 24.488281 -22.707031 L 24.542969 -23.226562 L 19.855469 -24.664062 Z M 20.824219 -31.34375 L 25.511719 -29.902344 L 25.605469 -30.429688 L 20.878906 -31.859375 Z M 20.28125 -27.714844 L 24.996094 -26.324219 L 25.046875 -26.84375 L 20.363281 -28.28125 Z M 21.15625 -33.734375 L 25.878906 -32.308594 L 25.972656 -32.835938 L 21.246094 -34.265625 Z M 20.964844 -32.550781 L 25.691406 -31.125 L 25.785156 -31.652344 L 21.058594 -33.082031 Z M 18.609375 -15.695312 L 23.292969 -14.253906 L 23.386719 -14.785156 L 18.660156 -16.210938 Z M 19.953125 -25.320312 L 24.625 -23.917969 L 24.71875 -24.449219 L 20.003906 -25.839844 Z M 18.9375 -18.089844 L 23.613281 -16.6875 L 23.707031 -17.214844 L 18.992188 -18.605469 Z M 19.445312 -21.703125 L 24.121094 -20.304688 L 24.210938 -20.832031 L 19.5 -22.222656 Z M 16.445312 -3.78125 L 20.570312 -2.546875 L 21.488281 -2.824219 L 17.039062 -4.167969 L 17.019531 -3.953125 Z M 26.121094 -33.882812 L 21.394531 -35.308594 L 21.328125 -34.832031 L 26.054688 -33.402344 Z M 4.898438 -23.585938 L 8.847656 -22.382812 L 8.203125 -23.152344 L 4.253906 -24.351562 Z M 2.007812 -26.980469 L 5.957031 -25.777344 L 5.320312 -26.507812 L 1.324219 -27.734375 Z M 3.433594 -25.277344 L 7.421875 -24.085938 L 6.785156 -24.816406 L 2.800781 -26.003906 Z M 7.828125 -20.203125 L 11.738281 -18.988281 L 11.09375 -19.753906 L 7.144531 -20.957031 Z M 6.363281 -21.894531 L 10.3125 -20.691406 L 9.679688 -21.421875 L 5.730469 -22.621094 Z M 12.863281 -17.738281 L 12.558594 -18.0625 L 8.660156 -19.238281 L 9.304688 -18.472656 L 12.828125 -17.433594 Z M 10.769531 -16.78125 L 12.652344 -16.214844 L 12.742188 -16.742188 L 10.125 -17.546875 Z M 12.234375 -15.085938 L 12.511719 -15.003906 L 12.554688 -15.558594 L 11.589844 -15.855469 Z M -0.757812 -29.117188 L -5.855469 -27.597656 L 14.78125 -4.035156 L 16.390625 -4.515625 L 20.742188 -35.535156 L 15.761719 -34.046875 L 12.972656 -13.179688 Z M -0.757812 -29.117188 "/></g></g></g><g fill="#000000" fill-opacity="1"><g transform="translate(318.094038, 274.822305)"><g><path d="M 5.421875 -2.164062 L 22.398438 -8.941406 L 20.710938 -13.175781 L 8.339844 -8.238281 L 5.847656 -14.480469 L 17.066406 -18.957031 L 15.433594 -23.042969 L 4.214844 -18.566406 L 1.296875 -25.882812 L 13.664062 -30.820312 L 11.976562 -35.054688 L -5 -28.28125 Z M 6.992188 -13.558594 L 11.632812 -12.609375 L 11.394531 -13.207031 L 6.933594 -14.136719 L 6.785156 -14.078125 Z M 7.523438 -12.21875 L 12.167969 -11.273438 L 11.929688 -11.867188 L 7.289062 -12.816406 Z M 22.609375 -10.359375 L 27.25 -9.414062 L 27.011719 -10.007812 L 22.371094 -10.953125 Z M 22.074219 -11.699219 L 26.730469 -10.714844 L 26.492188 -11.308594 L 21.835938 -12.292969 Z M 14.066406 -31.757812 L 18.722656 -30.773438 L 18.484375 -31.367188 L 13.828125 -32.351562 Z M 17.421875 -20.003906 L 22.066406 -19.058594 L 21.828125 -19.652344 L 17.1875 -20.597656 Z M 3.253906 -22.917969 L 7.894531 -21.972656 L 7.660156 -22.566406 L 3.015625 -23.511719 Z M 2.71875 -24.253906 L 7.363281 -23.308594 L 7.125 -23.902344 L 2.484375 -24.851562 Z M 13.535156 -33.09375 L 18.191406 -32.109375 L 17.953125 -32.703125 L 13.296875 -33.6875 Z M 23.140625 -9.023438 L 27.785156 -8.078125 L 27.546875 -8.671875 L 22.90625 -9.617188 Z M 22.554688 -17.832031 L 22.363281 -18.316406 L 17.71875 -19.261719 L 17.957031 -18.667969 L 22.40625 -17.773438 Z M 19.152344 -29.695312 L 19.019531 -30.03125 L 14.363281 -31.015625 L 14.601562 -30.417969 L 18.78125 -29.546875 Z M 8.296875 -20.96875 L 8.191406 -21.230469 L 3.550781 -22.175781 L 3.789062 -21.582031 L 7.777344 -20.761719 Z M 17.476562 -33.894531 L 12.820312 -34.878906 L 13.042969 -34.320312 L 17.699219 -33.335938 Z M 12.09375 -16.199219 L 16.277344 -15.328125 L 17.207031 -15.695312 L 13.023438 -16.570312 Z M 7.808594 -2.339844 L 12.027344 -1.484375 L 12.953125 -1.855469 L 8.738281 -2.710938 Z M 6.785156 -24.757812 L 7.527344 -25.054688 L 3.34375 -25.925781 L 2.417969 -25.554688 L 6.828125 -24.648438 Z M 4.460938 -26.371094 L 8.640625 -25.5 L 9.570312 -25.871094 L 5.351562 -26.726562 Z M 17.984375 -6.40625 L 22.167969 -5.53125 L 23.097656 -5.902344 L 18.878906 -6.761719 Z M 6.464844 -27.171875 L 10.683594 -26.316406 L 11.574219 -26.671875 L 7.394531 -27.542969 Z M 8.046875 -14.582031 L 12.226562 -13.710938 L 13.15625 -14.082031 L 8.9375 -14.9375 Z M 15.941406 -5.589844 L 20.125 -4.71875 L 21.050781 -5.089844 L 16.835938 -5.945312 Z M 10.515625 -28.789062 L 14.734375 -27.929688 L 15.625 -28.289062 L 11.445312 -29.160156 Z M 19.992188 -7.207031 L 24.210938 -6.347656 L 25.101562 -6.703125 L 20.921875 -7.578125 Z M 11.894531 -3.972656 L 16.074219 -3.101562 L 17.003906 -3.472656 L 12.785156 -4.328125 Z M 22.035156 -8.019531 L 26.214844 -7.148438 L 27.144531 -7.519531 L 22.925781 -8.378906 Z M 9.851562 -3.15625 L 14.070312 -2.300781 L 14.960938 -2.65625 L 10.78125 -3.527344 Z M 13.898438 -4.773438 L 18.117188 -3.917969 L 19.007812 -4.273438 L 14.828125 -5.144531 Z M 8.507812 -27.988281 L 12.691406 -27.117188 L 13.617188 -27.488281 L 9.398438 -28.34375 Z M 14.136719 -17.015625 L 18.320312 -16.140625 L 19.25 -16.511719 L 15.03125 -17.371094 Z M 10.050781 -15.382812 L 14.269531 -14.527344 L 15.160156 -14.882812 L 10.980469 -15.753906 Z M 16.144531 -17.816406 L 20.363281 -16.957031 L 21.253906 -17.3125 L 17.074219 -18.183594 Z M 20.9375 -21.882812 L 16.28125 -22.863281 L 16.503906 -22.308594 L 21.144531 -21.359375 Z M 12.558594 -29.605469 L 16.777344 -28.746094 L 17.667969 -29.101562 L 13.449219 -29.960938 Z M 16.949219 -21.191406 L 21.589844 -20.246094 L 21.382812 -20.765625 L 16.742188 -21.714844 Z M 8.058594 -10.882812 L 11.339844 -10.210938 L 12.269531 -10.582031 L 7.820312 -11.476562 Z M 4.320312 -20.242188 L 5.769531 -19.960938 L 6.660156 -20.316406 L 4.085938 -20.839844 Z M 8.355469 -10.140625 L 8.59375 -9.546875 L 9.335938 -9.410156 L 10.226562 -9.765625 Z M 10.875 -1.023438 L 10.910156 -1.039062 L 6.730469 -1.910156 L 6.691406 -1.898438 Z M 10.875 -1.023438 "/></g></g></g></svg>